<svg width="37" height="39" viewBox="0 0 37 39" fill="none" xmlns="http://www.w3.org/2000/svg">
<path id="Vector" d="M18.408 14.8571H22.0896V9.28571H27.6119V5.57143H22.0896V0H18.408V5.57143H12.8856V9.28571H18.408M11.0448 31.5714C9.0199 31.5714 7.36318 33.2429 7.36318 35.2857C7.36318 37.3286 9.0199 39 11.0448 39C13.0697 39 14.7264 37.3286 14.7264 35.2857C14.7264 33.2429 13.0697 31.5714 11.0448 31.5714ZM29.4527 31.5714C27.4279 31.5714 25.7711 33.2429 25.7711 35.2857C25.7711 37.3286 27.4279 39 29.4527 39C31.4776 39 33.1343 37.3286 33.1343 35.2857C33.1343 33.2429 31.4776 31.5714 29.4527 31.5714ZM11.4129 25.6286V25.4429L13.0697 22.2857H26.6915C27.9801 22.2857 29.2687 21.5429 29.8209 20.4286L37 7.42857L33.8706 5.57143L26.6915 18.5714H13.806L6.07463 1.85714H0V5.57143H3.68159L10.3085 19.6857L7.73134 24.1429C7.54726 24.7 7.36318 25.2571 7.36318 26C7.36318 28.0429 9.0199 29.7143 11.0448 29.7143H33.1343V26H11.7811C11.597 26 11.4129 25.8143 11.4129 25.6286Z" fill="white"/>
</svg>
