<svg width="10" height="17" viewBox="0 0 10 17" fill="none" xmlns="http://www.w3.org/2000/svg">
<g id="vector &#196;&#145;&#225;&#187;&#147;ng">
<path id="Vector" d="M6.06094 16.6369H0.757618C0.556685 16.6369 0.363982 16.5571 0.221901 16.4153C0.0798204 16.2734 0 16.081 0 15.8803C0 15.6797 0.0798204 15.4872 0.221901 15.3454C0.363982 15.2035 0.556685 15.1238 0.757618 15.1238H6.06094C6.26188 15.1238 6.45458 15.2035 6.59666 15.3454C6.73874 15.4872 6.81856 15.6797 6.81856 15.8803C6.81856 16.081 6.73874 16.2734 6.59666 16.4153C6.45458 16.5571 6.26188 16.6369 6.06094 16.6369Z" fill="#081748"/>
<path id="Vector_2" d="M6.06094 16.6368H0.757618C0.556685 16.6368 0.363982 16.5571 0.221901 16.4152C0.0798204 16.2733 0 16.0809 0 15.8803C0 15.6796 0.0798204 15.4872 0.221901 15.3453C0.363982 15.2034 0.556685 15.1237 0.757618 15.1237H6.06094C6.26188 15.1237 6.45458 15.2034 6.59666 15.3453C6.73874 15.4872 6.81856 15.6796 6.81856 15.8803C6.81856 16.0809 6.73874 16.2733 6.59666 16.4152C6.45458 16.5571 6.26188 16.6368 6.06094 16.6368ZM8.3338 4.53224H3.03047C2.82954 4.53224 2.63684 4.45253 2.49476 4.31065C2.35267 4.16877 2.27285 3.97635 2.27285 3.7757C2.27285 3.57505 2.35267 3.38263 2.49476 3.24075C2.63684 3.09887 2.82954 3.01917 3.03047 3.01917H8.3338C8.53473 3.01917 8.72743 3.09887 8.86951 3.24075C9.0116 3.38263 9.09142 3.57505 9.09142 3.7757C9.09142 3.97635 9.0116 4.16877 8.86951 4.31065C8.72743 4.45253 8.53473 4.53224 8.3338 4.53224Z" fill="#081748"/>
<path id="Vector_3" d="M8.3338 4.53224H3.03047C2.82954 4.53224 2.63684 4.45253 2.49476 4.31065C2.35267 4.16877 2.27285 3.97635 2.27285 3.7757C2.27285 3.57505 2.35267 3.38263 2.49476 3.24075C2.63684 3.09887 2.82954 3.01917 3.03047 3.01917H8.3338C8.53473 3.01917 8.72743 3.09887 8.86951 3.24075C9.0116 3.38263 9.09142 3.57505 9.09142 3.7757C9.09142 3.97635 9.0116 4.16877 8.86951 4.31065C8.72743 4.45253 8.53473 4.53224 8.3338 4.53224ZM3.40928 13.6107C2.5057 13.6087 1.6397 13.2493 1.00077 12.6113C0.361835 11.9733 0.0020013 11.1085 0 10.2063V9.44972C0 8.54681 0.359191 7.68089 0.998555 7.04244C1.63792 6.40399 2.50508 6.04531 3.40928 6.04531C4.31348 6.04531 5.18064 6.40399 5.82001 7.04244C6.45937 7.68089 6.81856 8.54681 6.81856 9.44972V10.2063C6.81656 11.1085 6.45673 11.9733 5.8178 12.6113C5.17886 13.2493 4.31286 13.6087 3.40928 13.6107ZM3.40928 7.55838C2.90695 7.55838 2.42519 7.75764 2.06999 8.11234C1.71479 8.46703 1.51524 8.9481 1.51524 9.44972V10.2063C1.51524 10.7079 1.71479 11.1889 2.06999 11.5436C2.42519 11.8983 2.90695 12.0976 3.40928 12.0976C3.91161 12.0976 4.39337 11.8983 4.74857 11.5436C5.10378 11.1889 5.30333 10.7079 5.30333 10.2063V9.44972C5.30333 8.9481 5.10378 8.46703 4.74857 8.11234C4.39337 7.75764 3.91161 7.55838 3.40928 7.55838Z" fill="#081748"/>
<path id="Vector_4" d="M6.06084 13.6107C5.85991 13.6107 5.6672 13.531 5.52512 13.3891C5.38304 13.2472 5.30322 13.0548 5.30322 12.8541V1.50611C5.30322 1.30546 5.38304 1.11303 5.52512 0.971157C5.6672 0.829279 5.85991 0.749573 6.06084 0.749573C6.26177 0.749573 6.45448 0.829279 6.59656 0.971157C6.73864 1.11303 6.81846 1.30546 6.81846 1.50611V12.8541C6.81846 13.0548 6.73864 13.2472 6.59656 13.3891C6.45448 13.531 6.26177 13.6107 6.06084 13.6107Z" fill="#081748"/>
</g>
</svg>
