<svg width="58" height="45" viewBox="0 0 58 45" fill="none" xmlns="http://www.w3.org/2000/svg">
<path fill-rule="evenodd" clip-rule="evenodd" d="M16.6795 0.498834C16.3831 0.784281 16.1405 1.34436 16.1405 1.74356C16.1405 2.7223 15.3342 3.272 13.4117 3.60502C10.3424 4.13656 7.92666 8.01216 9.63807 9.65954C10.6748 10.6577 11.2718 10.3922 12.2474 8.49742C12.9342 7.16403 13.3677 6.85264 14.8576 6.62341C17.9179 6.15243 20.3871 2.82826 19.2273 0.741464C18.7395 -0.136071 17.4647 -0.25717 16.6795 0.498834ZM30.6304 1.5857C30.0325 2.80144 29.489 3.26032 28.3921 3.47484C25.3947 4.06174 22.9623 6.73803 23.5117 8.84472C24.0377 10.8627 26.2567 10.6309 26.8307 8.49828C27.1384 7.35476 27.5009 7.08532 29.3372 6.63423C31.9025 6.00408 33.0062 5.12698 33.6696 3.19242C34.731 0.0957472 32.0579 -1.31765 30.6304 1.5857ZM45.9684 0.304643C45.698 0.482832 45.1926 1.20467 44.8454 1.9092C44.3971 2.82004 43.7763 3.27589 42.6978 3.48782C40.508 3.91772 38.9085 5.22645 38.2473 7.12987C37.7312 8.61506 37.7581 8.87629 38.5015 9.5925C39.6065 10.656 40.6823 10.201 41.2964 8.40962C41.7208 7.17139 42.0528 6.92573 43.6533 6.66537C45.7811 6.31894 47.8231 4.61187 48.3005 2.77939C48.7843 0.923113 47.3469 -0.602301 45.9684 0.304643ZM20.4406 18.011C21.7652 20.1294 21.9799 20.8569 21.9799 23.2295C21.9799 24.7459 21.7693 26.3656 21.5119 26.8288C21.0515 27.657 21.3003 27.6691 36.2228 27.5571L51.4017 27.4434L52.637 25.0953C53.972 22.5579 54.334 18.7623 53.3332 17.7987C52.5894 17.0825 49.9998 17.1491 47.1744 17.957C44.3549 18.7632 41.2425 21.516 40.4124 23.9375L39.863 25.5395L37.7716 23.6625C33.2559 19.6091 28.8197 17.3493 23.1748 16.2266C21.3035 15.8542 19.5759 15.5497 19.3365 15.5497C19.0971 15.5497 19.5939 16.6573 20.4406 18.011ZM11.8669 17.0167C8.02189 18.7515 5.26613 21.9519 4.09914 26.0377L3.63558 27.6596H10.4538C18.1749 27.6596 18.156 27.6678 18.673 24.037C19.0014 21.7309 18.1331 19.7916 15.783 17.582L14.107 16.0064L11.8669 17.0167ZM0.50878 31.6386C-0.316827 32.4335 -0.138499 33.1938 1.05005 33.9438C1.64388 34.3183 2.25342 35.0977 2.4039 35.6755C2.81401 37.2485 5.08151 39.5173 7.13475 40.4087C8.70151 41.089 8.95351 41.387 8.95351 42.56C8.95351 43.3086 9.19607 44.155 9.49253 44.4405C10.2674 45.1865 47.1681 45.1865 47.943 44.4405C48.2395 44.155 48.482 43.3086 48.482 42.56C48.482 41.387 48.734 41.089 50.3008 40.4087C52.3365 39.5247 54.6206 37.2519 55.0226 35.7101C55.1682 35.1513 55.8783 34.2733 56.6011 33.7591C57.7586 32.9348 58.5726 31.1096 57.4968 31.7497C57.2668 31.8868 56.9519 31.8008 56.7965 31.559C56.3612 30.8808 1.2149 30.9587 0.50878 31.6386ZM0.00524089 32.6692C0.0268019 33.1731 0.133259 33.2756 0.27655 32.9309C0.406365 32.6186 0.390195 32.2454 0.241064 32.1018C0.0919341 31.9582 -0.0140742 32.2134 0.00524089 32.6692Z" fill="#FFBC04"/>
</svg>
