<svg width="76" height="76" viewBox="0 0 76 76" fill="none" xmlns="http://www.w3.org/2000/svg">
<ellipse cx="38.0062" cy="38.0603" rx="37.994" ry="37.9397" fill="#FFBC04"/>
<path d="M59.1139 40.0714C59.1139 40.6237 58.6662 41.0714 58.1139 41.0714H42.0216C41.4693 41.0714 41.0216 41.5191 41.0216 42.0714V58.1379C41.0216 58.6902 40.5739 59.1379 40.0216 59.1379H35.9908C35.4385 59.1379 34.9908 58.6902 34.9908 58.1379V42.0714C34.9908 41.5191 34.5431 41.0714 33.9908 41.0714H17.8984C17.3462 41.0714 16.8984 40.6237 16.8984 40.0714V36.0492C16.8984 35.4969 17.3462 35.0492 17.8984 35.0492H33.9908C34.5431 35.0492 34.9908 34.6015 34.9908 34.0492V17.9827C34.9908 17.4304 35.4385 16.9827 35.9908 16.9827H40.0216C40.5739 16.9827 41.0216 17.4304 41.0216 17.9827V34.0492C41.0216 34.6015 41.4693 35.0492 42.0216 35.0492H58.1139C58.6662 35.0492 59.1139 35.4969 59.1139 36.0492V40.0714Z" fill="white"/>
</svg>
