<svg width="46" height="45" viewBox="0 0 46 45" fill="none" xmlns="http://www.w3.org/2000/svg">
<path id="bedtime" d="M23.23 45C20.01 45 16.9912 44.4 14.1737 43.2C11.3562 42 8.90292 40.3781 6.81375 38.3344C4.72458 36.2906 3.06667 33.8906 1.84 31.1344C0.613333 28.3781 0 25.425 0 22.275C0 16.8 1.7825 11.9719 5.3475 7.79062C8.9125 3.60937 13.455 1.0125 18.975 0C18.285 3.7125 18.4958 7.34062 19.6075 10.8844C20.7192 14.4281 22.6358 17.5312 25.3575 20.1938C28.0792 22.8563 31.2513 24.7313 34.8738 25.8188C38.4963 26.9062 42.205 27.1125 46 26.4375C45.0033 31.8375 42.3583 36.2812 38.065 39.7687C33.7717 43.2562 28.8267 45 23.23 45ZM23.23 40.5C26.6033 40.5 29.7275 39.675 32.6025 38.025C35.4775 36.375 37.7392 34.1062 39.3875 31.2187C36.0908 30.9187 32.9667 30.1031 30.015 28.7719C27.0633 27.4406 24.4183 25.6312 22.08 23.3437C19.7417 21.0562 17.8825 18.4687 16.5025 15.5812C15.1225 12.6937 14.2983 9.6375 14.03 6.4125C11.0783 8.025 8.76875 10.2469 7.10125 13.0781C5.43375 15.9094 4.6 18.975 4.6 22.275C4.6 27.3375 6.41125 31.6406 10.0338 35.1844C13.6562 38.7281 18.055 40.5 23.23 40.5Z" fill="#FFBC04"/>
</svg>
