<svg width="21" height="20" viewBox="0 0 21 20" fill="none" xmlns="http://www.w3.org/2000/svg">
<path id="Vector" d="M15.0203 12.5787H14.1329L13.8184 12.2755C14.9192 10.9949 15.5819 9.3324 15.5819 7.52388C15.5819 3.49122 12.3131 0.222412 8.28047 0.222412C4.24782 0.222412 0.979004 3.49122 0.979004 7.52388C0.979004 11.5565 4.24782 14.8253 8.28047 14.8253C10.089 14.8253 11.7515 14.1626 13.032 13.0618L13.3353 13.3763V14.2637L18.9519 19.869L20.6256 18.1953L15.0203 12.5787ZM8.28047 12.5787C5.48345 12.5787 3.22561 10.3209 3.22561 7.52388C3.22561 4.72686 5.48345 2.46902 8.28047 2.46902C11.0775 2.46902 13.3353 4.72686 13.3353 7.52388C13.3353 10.3209 11.0775 12.5787 8.28047 12.5787Z" fill="white"/>
</svg>
