<svg width="68" height="45" viewBox="0 0 68 45" fill="none" xmlns="http://www.w3.org/2000/svg">
<path id="Vector" d="M7.87368 26.7188L5.72632 22.5H20.7579L19.04 18.2812H5.01053L2.86316 14.0625H25.1958L23.4779 9.84375H2.46232L0 5.625H10.7368C10.7368 4.13316 11.3401 2.70242 12.414 1.64752C13.4879 0.592632 14.9444 0 16.4632 0H50.8211V11.25H59.4105L68 22.5V36.5625H62.2737C62.2737 38.8003 61.3687 40.9464 59.7579 42.5287C58.147 44.1111 55.9623 45 53.6842 45C51.4061 45 49.2214 44.1111 47.6105 42.5287C45.9997 40.9464 45.0947 38.8003 45.0947 36.5625H33.6421C33.6421 38.8003 32.7371 40.9464 31.1263 42.5287C29.5155 44.1111 27.3307 45 25.0526 45C22.7746 45 20.5898 44.1111 18.979 42.5287C17.3681 40.9464 16.4632 38.8003 16.4632 36.5625H10.7368V26.7188H7.87368ZM53.6842 40.7812C54.8232 40.7812 55.9156 40.3368 56.721 39.5456C57.5265 38.7544 57.979 37.6814 57.979 36.5625C57.979 35.4436 57.5265 34.3706 56.721 33.5794C55.9156 32.7882 54.8232 32.3438 53.6842 32.3438C52.5452 32.3438 51.4528 32.7882 50.6474 33.5794C49.842 34.3706 49.3895 35.4436 49.3895 36.5625C49.3895 37.6814 49.842 38.7544 50.6474 39.5456C51.4528 40.3368 52.5452 40.7812 53.6842 40.7812ZM57.979 15.4688H50.8211V22.5H63.5907L57.979 15.4688ZM25.0526 40.7812C26.1917 40.7812 27.2841 40.3368 28.0895 39.5456C28.8949 38.7544 29.3474 37.6814 29.3474 36.5625C29.3474 35.4436 28.8949 34.3706 28.0895 33.5794C27.2841 32.7882 26.1917 32.3438 25.0526 32.3438C23.9136 32.3438 22.8212 32.7882 22.0158 33.5794C21.2104 34.3706 20.7579 35.4436 20.7579 36.5625C20.7579 37.6814 21.2104 38.7544 22.0158 39.5456C22.8212 40.3368 23.9136 40.7812 25.0526 40.7812Z" fill="#FFBC04"/>
</svg>
