<svg width="29" height="29" viewBox="0 0 29 29" fill="none" xmlns="http://www.w3.org/2000/svg">
<path d="M8.70259 29C7.90485 29 7.22218 28.7163 6.65458 28.1489C6.08601 27.5805 5.80173 26.8975 5.80173 26.1C5.80173 25.3025 6.08601 24.6196 6.65458 24.0512C7.22218 23.4837 7.90485 23.2 8.70259 23.2C9.50033 23.2 10.183 23.4837 10.7506 24.0512C11.3192 24.6196 11.6035 25.3025 11.6035 26.1C11.6035 26.8975 11.3192 27.5805 10.7506 28.1489C10.183 28.7163 9.50033 29 8.70259 29ZM23.2069 29C22.4092 29 21.7265 28.7163 21.1589 28.1489C20.5903 27.5805 20.306 26.8975 20.306 26.1C20.306 25.3025 20.5903 24.6196 21.1589 24.0512C21.7265 23.4837 22.4092 23.2 23.2069 23.2C24.0046 23.2 24.6878 23.4837 25.2564 24.0512C25.824 24.6196 26.1078 25.3025 26.1078 26.1C26.1078 26.8975 25.824 27.5805 25.2564 28.1489C24.6878 28.7163 24.0046 29 23.2069 29ZM8.70259 21.75C7.61477 21.75 6.79286 21.2725 6.23686 20.3174C5.68086 19.3633 5.65668 18.415 6.16433 17.4725L8.12242 13.92L2.90086 2.9H1.41417C1.00322 2.9 0.664781 2.7608 0.398869 2.4824C0.132956 2.20497 0 1.86083 0 1.45C0 1.03917 0.139241 0.69455 0.417724 0.41615C0.69524 0.138717 1.03948 0 1.45043 0H3.80738C4.0733 0 4.32712 0.0725001 4.56886 0.2175C4.8106 0.3625 4.9919 0.567917 5.11277 0.83375L6.09181 2.9H27.4857C28.1384 2.9 28.5856 3.14167 28.8273 3.625C29.0691 4.10833 29.057 4.61583 28.7911 5.1475L23.642 14.4275C23.3761 14.9108 23.0256 15.2854 22.5905 15.5513C22.1553 15.8171 21.6598 15.95 21.1038 15.95H10.2981L8.70259 18.85H24.6936C25.1046 18.85 25.443 18.9887 25.7089 19.2662C25.9748 19.5446 26.1078 19.8892 26.1078 20.3C26.1078 20.7108 25.9685 21.055 25.69 21.3324C25.4125 21.6108 25.0683 21.75 24.6573 21.75H8.70259Z" fill="#FDFDFD"/>
</svg>
