<svg width="138" height="23" viewBox="0 0 138 23" fill="none" xmlns="http://www.w3.org/2000/svg">
<rect width="138" height="23" fill="white"/>
<g id="Group 1000001792">
<g id="Group 182">
<g id="Group 178">
<rect id="Rectangle 130" x="-168" y="-708" width="1440" height="1493" fill="white"/>
</g>
</g>
</g>
<g id="Group 196">
<g id="Group 182_2">
<g id="Group 178_2">
<g id="Group 175">
<g id="Group 160">
<g id="Group 159">
<g id="Group 156">
<g id="Group 18">
<g id="Rectangle 35" filter="url(#filter0_d_0_1)">
<rect x="-20" y="-399" width="324" height="446" rx="21" fill="white"/>
</g>
<g id="Group 7">
<path id="Vector" d="M11.8731 18.2967L19.2107 22.7191L17.2635 14.3842L23.7462 8.77623L15.2095 8.04115L11.8731 0.192383L8.53677 8.04115L0 8.77623L6.47085 14.3842L4.53553 22.7191L11.8731 18.2967Z" fill="#FFBC04"/>
<path id="Vector_2" d="M40.3687 18.2967L47.7063 22.7191L45.7591 14.3842L52.2418 8.77625L43.7051 8.04117L40.3687 0.192398L37.0324 8.04117L28.4956 8.77625L34.9665 14.3842L33.0311 22.7191L40.3687 18.2967Z" fill="#FFBC04"/>
<path id="Vector_3" d="M68.8638 18.2967L76.2014 22.7191L74.2542 14.3842L80.7369 8.77625L72.2002 8.04117L68.8638 0.192398L65.5275 8.04117L56.9907 8.77625L63.4616 14.3842L61.5263 22.7191L68.8638 18.2967Z" fill="#FFBC04"/>
<path id="Vector_4" d="M97.3594 18.2967L104.697 22.7191L102.75 14.3842L109.233 8.77625L100.696 8.04117L97.3594 0.192398L94.0231 8.04117L85.4863 8.77625L91.9572 14.3842L90.0219 22.7191L97.3594 18.2967Z" fill="#FFBC04"/>
<path id="Vector_5" d="M125.855 18.2967L133.193 22.7191L131.245 14.3842L137.728 8.77625L129.191 8.04117L125.855 0.192398L122.519 8.04117L113.982 8.77625L120.453 14.3842L118.517 22.7191L125.855 18.2967Z" fill="#FFBC04"/>
</g>
</g>
</g>
</g>
</g>
</g>
</g>
</g>
</g>
<defs>
<filter id="filter0_d_0_1" x="-37" y="-416" width="374" height="496" filterUnits="userSpaceOnUse" color-interpolation-filters="sRGB">
<feFlood flood-opacity="0" result="BackgroundImageFix"/>
<feColorMatrix in="SourceAlpha" type="matrix" values="0 0 0 0 0 0 0 0 0 0 0 0 0 0 0 0 0 0 127 0" result="hardAlpha"/>
<feMorphology radius="5" operator="dilate" in="SourceAlpha" result="effect1_dropShadow_0_1"/>
<feOffset dx="8" dy="8"/>
<feGaussianBlur stdDeviation="10"/>
<feComposite in2="hardAlpha" operator="out"/>
<feColorMatrix type="matrix" values="0 0 0 0 0.0313726 0 0 0 0 0.0901961 0 0 0 0 0.282353 0 0 0 0.24 0"/>
<feBlend mode="normal" in2="BackgroundImageFix" result="effect1_dropShadow_0_1"/>
<feBlend mode="normal" in="SourceGraphic" in2="effect1_dropShadow_0_1" result="shape"/>
</filter>
</defs>
</svg>
