<svg width="42" height="30" viewBox="0 0 42 30" fill="none" xmlns="http://www.w3.org/2000/svg">
<path id="Vector" d="M16.8 21.4286L27.699 15L16.8 8.57143V21.4286ZM41.076 4.65C41.349 5.65714 41.538 7.00714 41.664 8.72143C41.811 10.4357 41.874 11.9143 41.874 13.2L42 15C42 19.6929 41.664 23.1429 41.076 25.35C40.551 27.2786 39.333 28.5214 37.443 29.0571C36.456 29.3357 34.65 29.5286 31.878 29.6571C29.148 29.8071 26.649 29.8714 24.339 29.8714L21 30C12.201 30 6.72 29.6571 4.557 29.0571C2.667 28.5214 1.449 27.2786 0.924 25.35C0.651 24.3429 0.462 22.9929 0.336 21.2786C0.189 19.5643 0.126 18.0857 0.126 16.8L0 15C0 10.3071 0.336 6.85714 0.924 4.65C1.449 2.72143 2.667 1.47857 4.557 0.942857C5.544 0.664286 7.35 0.471428 10.122 0.342857C12.852 0.192857 15.351 0.128571 17.661 0.128571L21 0C29.799 0 35.28 0.342857 37.443 0.942857C39.333 1.47857 40.551 2.72143 41.076 4.65Z" fill="white"/>
</svg>
